<svg width="33" height="45" viewBox="0 0 33 45" fill="none" xmlns="http://www.w3.org/2000/svg">
<path d="M31.5514 21.2527L2.92453 0.466608C2.69493 0.298306 2.42311 0.197067 2.13936 0.17417C1.85561 0.151274 1.57107 0.207619 1.31746 0.336931C1.06385 0.466242 0.851127 0.663438 0.703002 0.906541C0.554877 1.14964 0.477167 1.4291 0.478533 1.71378V43.286C0.478533 44.5526 1.90939 45.268 2.92453 44.5332L31.5514 23.7471C31.749 23.6047 31.91 23.4173 32.021 23.2005C32.132 22.9836 32.1899 22.7435 32.1899 22.4999C32.1899 22.2563 32.132 22.0162 32.021 21.7993C31.91 21.5825 31.749 21.3952 31.5514 21.2527ZM6.6467 34.2078V10.792L22.7632 22.4999L6.6467 34.2078Z" fill="white"/>
</svg>
