<svg width="19" height="26" viewBox="0 0 19 26" fill="none" xmlns="http://www.w3.org/2000/svg">
<path d="M17.9371 12.3197L2.32247 0.981808C2.19724 0.890007 2.04897 0.834786 1.8942 0.822297C1.73942 0.809808 1.58422 0.840542 1.44589 0.911075C1.30755 0.981609 1.19152 1.08917 1.11073 1.22177C1.02993 1.35437 0.987546 1.50681 0.988291 1.66208V24.3379C0.988291 25.0287 1.76876 25.4189 2.32247 25.0181L17.9371 13.6802C18.0449 13.6026 18.1327 13.5004 18.1933 13.3821C18.2538 13.2638 18.2854 13.1328 18.2854 13C18.2854 12.8671 18.2538 12.7361 18.1933 12.6178C18.1327 12.4996 18.0449 12.3974 17.9371 12.3197ZM4.35274 19.3861V6.61384L13.1436 13L4.35274 19.3861Z" fill="white"/>
</svg>
