<svg width="14" height="10" viewBox="0 0 14 10" fill="none" xmlns="http://www.w3.org/2000/svg">
<path fill-rule="evenodd" clip-rule="evenodd" d="M12.74 2.86501C12.9718 2.6162 13.098 2.28712 13.092 1.94709C13.086 1.60706 12.9483 1.28264 12.7078 1.04217C12.4673 0.801694 12.1429 0.663949 11.8029 0.65795C11.4629 0.65195 11.1338 0.778166 10.885 1.01001L5.24997 6.645L3.11498 4.51001C2.86617 4.27817 2.53709 4.15195 2.19706 4.15795C1.85703 4.16395 1.53261 4.30169 1.29214 4.54217C1.05167 4.78264 0.913919 5.10707 0.907919 5.44709C0.90192 5.78712 1.02814 6.1162 1.25998 6.36501L4.32247 9.4275C4.56857 9.67329 4.90216 9.81135 5.24997 9.81135C5.59779 9.81135 5.93138 9.67329 6.17747 9.4275L12.74 2.86501Z" fill="#BD7048"/>
</svg>
