<svg width="31" height="33" viewBox="0 0 31 33" fill="none" xmlns="http://www.w3.org/2000/svg">
<path d="M15.3879 1.34425C15.5891 1.09244 15.8383 0.883045 16.121 0.728188C16.4037 0.573331 16.7143 0.476087 17.0349 0.442083C17.3554 0.408079 17.6795 0.437991 17.9884 0.530088C18.2973 0.622185 18.5849 0.774638 18.8345 0.978622L26.7856 7.47212C27.2229 7.82914 27.5227 8.32687 27.6338 8.88033C27.745 9.43379 27.6605 10.0087 27.395 10.5068C26.6998 10.2944 25.9769 10.1867 25.25 10.1875H24.5187L25.2451 9.35875L21.0575 5.93893L17.6036 10.1899H14.4616L19.1684 4.39843L17.2916 2.86525L11.4464 10.1875H8.32644L15.3879 1.34425ZM21.5938 22.375C21.2705 22.375 20.9605 22.5034 20.732 22.732C20.5034 22.9605 20.375 23.2705 20.375 23.5937C20.375 23.917 20.5034 24.227 20.732 24.4555C20.9605 24.6841 21.2705 24.8125 21.5938 24.8125H24.0312C24.3545 24.8125 24.6645 24.6841 24.893 24.4555C25.1216 24.227 25.25 23.917 25.25 23.5937C25.25 23.2705 25.1216 22.9605 24.893 22.732C24.6645 22.5034 24.3545 22.375 24.0312 22.375H21.5938ZM3.3125 11.4062C3.3125 11.083 3.4409 10.773 3.66946 10.5445C3.89802 10.3159 4.20802 10.1875 4.53125 10.1875H5.89138L7.82919 7.75H4.53125C3.56155 7.75 2.63157 8.13521 1.94589 8.82089C1.26021 9.50657 0.875 10.4365 0.875 11.4062V26.0312C0.875 27.6474 1.51702 29.1974 2.65982 30.3402C3.80262 31.483 5.35259 32.125 6.96875 32.125H25.25C26.5429 32.125 27.7829 31.6114 28.6971 30.6971C29.6114 29.7829 30.125 28.5429 30.125 27.25V17.5C30.125 16.2071 29.6114 14.9671 28.6971 14.0529C27.7829 13.1386 26.5429 12.625 25.25 12.625H4.53125C4.20802 12.625 3.89802 12.4966 3.66946 12.268C3.4409 12.0395 3.3125 11.7295 3.3125 11.4062ZM3.3125 26.0312V14.8553C3.69275 14.9894 4.10469 15.0625 4.53125 15.0625H25.25C25.8965 15.0625 26.5165 15.3193 26.9736 15.7764C27.4307 16.2335 27.6875 16.8535 27.6875 17.5V27.25C27.6875 27.8965 27.4307 28.5164 26.9736 28.9736C26.5165 29.4307 25.8965 29.6875 25.25 29.6875H6.96875C5.99905 29.6875 5.06907 29.3023 4.38339 28.6166C3.69771 27.9309 3.3125 27.0009 3.3125 26.0312Z" fill="#BD7048"/>
</svg>
