<svg width="72" height="17" viewBox="0 0 72 17" fill="none" xmlns="http://www.w3.org/2000/svg">
<g clip-path="url(#clip0_68_2420)">
<path fill-rule="evenodd" clip-rule="evenodd" d="M8.55192 9.09309C10.0143 9.32084 10.212 10.1938 10.3302 11.0062L10.3499 11.1447L10.3633 11.239L10.4345 11.7171C10.5738 12.63 10.8644 14.5249 10.8644 15.5138C10.8644 15.7609 10.8429 15.9506 10.8035 16.0548C10.7379 16.2154 10.5467 16.3696 10.2827 16.498C9.64397 16.6566 8.97631 16.7424 8.28858 16.7424C8.21576 16.7424 8.14412 16.7389 8.07222 16.7367C7.79428 16.6571 7.58538 16.5241 7.47478 16.3424C7.14082 15.794 7.1207 14.5721 7.11401 13.1442L7.11324 12.9786L7.11054 12.5506C7.09966 11.039 7.09032 9.73563 7.63471 9.26793C7.84555 9.08804 8.14514 9.02849 8.55192 9.09309ZM5.36359 12.3841C5.68049 12.3662 5.88429 13.9387 5.92524 15.1311C5.95394 15.9612 5.86754 16.3027 5.72957 16.4253C5.57336 16.3727 5.41986 16.3158 5.26861 16.254C5.16771 16.069 5.09059 15.7781 5.04159 15.3969C4.89201 14.1993 5.02195 12.4053 5.36359 12.3841ZM13.3084 14.734C13.2886 14.8433 13.2607 14.9276 13.2264 14.9988C12.9554 15.2182 12.6706 15.4196 12.3726 15.6007C12.2777 15.6169 12.1934 15.6056 12.1522 15.5354C11.7572 14.8352 11.609 12.6388 11.9912 12.4476C12.4895 12.2048 13.3822 14.3543 13.3084 14.734ZM8.17062 0.257568C12.6202 0.257568 16.2386 3.81243 16.3384 8.23587L16.3404 8.38877V8.45945C16.3323 10.4576 15.6034 12.2856 14.4026 13.7005C14.359 13.6785 14.2795 13.6063 14.1356 13.3891C13.9866 13.1707 12.7021 11.1764 12.7021 8.89053C12.7021 8.44193 13.343 7.74117 13.9102 7.12608C14.3342 6.66322 14.7358 6.22663 14.8837 5.88349C15.0721 5.44071 14.9403 5.13155 14.7318 5.02675C14.5431 4.93361 14.2599 5.00155 14.0611 5.35772C13.7349 5.93418 13.6304 6.0419 13.1546 6.42759C12.6863 6.81308 11.942 7.20114 11.942 6.69882C11.942 6.42759 12.3566 5.81332 12.5614 5.38276C12.7706 4.94739 12.5451 4.63221 12.1132 4.63221C11.2651 4.63221 10.7021 5.72214 10.7021 6.09975C10.7021 6.47704 10.8835 6.53077 10.8835 6.97015C10.8835 7.41282 9.95301 7.987 9.07644 7.987C8.23251 7.987 7.74312 7.81469 7.54034 7.32921L7.51445 7.26105L7.45583 7.08611C7.2479 6.47303 7.09874 6.0284 6.83908 5.56373C6.70121 5.318 6.48848 5.14765 6.30449 4.99777C6.06403 4.80934 5.93929 4.63585 5.91324 4.50646C5.88924 4.37808 5.87632 4.13616 6.28739 3.57849C6.69758 3.024 6.75508 2.60511 6.54981 2.38897C6.47541 2.31208 6.34856 2.26282 6.18567 2.26282C5.89757 2.26282 5.49723 2.41682 5.08466 2.83984C4.44332 3.50282 4.80741 4.13228 4.80741 4.4086C4.80741 4.68474 4.68992 4.84094 4.30504 5.21662C3.91735 5.59397 3.78355 5.91749 3.73921 7.21773C3.72222 7.88768 3.60527 8.27333 3.50028 8.61528C3.40956 8.915 3.32612 9.19679 3.32162 9.60391C3.31443 10.0551 3.38887 10.3458 3.47574 10.6813C3.56103 10.9914 3.65162 11.3467 3.70966 11.941C3.80197 12.861 3.76988 13.6382 3.60204 14.4325L3.55725 14.6315L3.54678 14.6887C3.51241 14.8283 3.47155 14.9978 3.41633 15.0613C1.34847 13.5796 0 11.1597 0 8.42432C0 3.91434 3.65796 0.257568 8.17062 0.257568Z" fill="#F14635"/>
<path d="M47.5448 5.90923C48.3532 5.90923 48.9817 6.19802 49.4304 6.77561C49.879 7.3532 50.1033 8.14715 50.1033 9.15741V9.25143C50.1033 10.2382 49.874 11.0263 49.4152 11.6156C48.9564 12.2049 48.337 12.4996 47.5569 12.4996C46.9547 12.4996 46.4596 12.2862 46.0715 11.8594V15.0662H44.0285V6.02673H45.9382L45.9989 6.61411C46.3909 6.14419 46.9062 5.90923 47.5448 5.90923ZM33.2979 5.90923C34.1346 5.90923 34.7954 6.10699 35.2804 6.50247C35.7654 6.89801 36.014 7.44036 36.0261 8.12953V10.9431C36.0342 11.5265 36.1272 11.9729 36.305 12.2823V12.3822H34.2619C34.1891 12.2529 34.1244 12.063 34.0679 11.8124C33.692 12.2705 33.1665 12.4996 32.4916 12.4996C31.8731 12.4996 31.3477 12.3185 30.9152 11.9563C30.4828 11.5941 30.2665 11.1388 30.2665 10.5906C30.2665 9.90144 30.5292 9.38063 31.0547 9.02821C31.5801 8.6758 32.344 8.49956 33.3464 8.49956H33.9769V8.16477C33.9769 7.5813 33.7162 7.28957 33.1948 7.28957C32.7098 7.28957 32.4673 7.52062 32.4673 7.98266H30.4242C30.4242 7.36788 30.6939 6.86864 31.2336 6.48486C31.7731 6.10112 32.4612 5.90923 33.2979 5.90923ZM39.9485 5.90923C40.8134 5.90923 41.5086 6.09916 42.034 6.47898C42.5595 6.85886 42.8222 7.35809 42.8222 7.97679H40.7731C40.7731 7.46776 40.4961 7.21323 39.9424 7.21323C39.7282 7.21323 39.5483 7.27098 39.4029 7.38647C39.2573 7.50202 39.1846 7.6459 39.1846 7.81822C39.1846 7.99446 39.2735 8.13736 39.4513 8.24698C39.6292 8.35666 39.9131 8.44671 40.3031 8.51718C40.6931 8.5877 41.0357 8.67188 41.3308 8.76976C42.317 9.09868 42.81 9.68802 42.81 10.5378C42.81 11.1173 42.5444 11.5892 42.0128 11.9533C41.4813 12.3175 40.7932 12.4996 39.9485 12.4996C39.3867 12.4996 38.8855 12.4017 38.445 12.2059C38.0044 12.0101 37.6608 11.7438 37.4142 11.4071C37.1677 11.0703 37.0444 10.7159 37.0444 10.344H38.9542C38.9623 10.6376 39.0633 10.852 39.2573 10.9871C39.4513 11.1222 39.6998 11.1897 40.003 11.1897C40.2819 11.1897 40.4911 11.1349 40.6305 11.0253C40.77 10.9156 40.8396 10.7727 40.8396 10.5965C40.8396 10.4281 40.7488 10.293 40.5669 10.1912C40.385 10.0894 40.0394 9.98366 39.5302 9.87404C39.0209 9.76441 38.6005 9.62048 38.2691 9.44229C37.9377 9.26415 37.6851 9.04779 37.5113 8.79325C37.3375 8.53871 37.2506 8.24698 37.2506 7.91806C37.2506 7.3346 37.4991 6.85396 37.9963 6.47605C38.4934 6.09818 39.1442 5.90923 39.9485 5.90923ZM24.5981 3.34876V7.60088L27.4898 3.34876H30.121L26.8898 7.61263L29.8727 12.3822H27.3506L25.4712 9.19857L24.5981 10.1266V12.3822H22.4701V3.34876H24.5981ZM53.4072 6.02673V12.3822H51.358V6.02673H53.4072ZM71.4245 6.02673V7.09572L68.5027 10.8549H71.4914V12.3822H65.9198V11.2779L68.83 7.5539H65.4015L66.767 6.02673H71.4245ZM56.1467 10.3321C56.7059 10.3321 57.1583 10.7725 57.1583 11.3158C57.1583 11.8591 56.7059 12.2995 56.1467 12.2995C55.5881 12.2995 55.1352 11.8591 55.1352 11.3158C55.1352 10.7725 55.5881 10.3321 56.1467 10.3321ZM60.8916 3.34851V8.09507L61.0979 7.83332L62.6421 5.99515H65.0977L62.7942 8.58369L65.2499 12.289H62.9035L61.4691 9.94482L60.8916 10.4974V12.289H58.8429V3.34851H60.8916ZM33.9769 9.55686H33.3828C32.6714 9.55686 32.3158 9.86621 32.3158 10.4849C32.3158 10.6651 32.3784 10.8109 32.5037 10.9225C32.629 11.0341 32.7886 11.0899 32.9827 11.0899C33.2373 11.0899 33.4485 11.037 33.6162 10.9313C33.7839 10.8256 33.9042 10.7062 33.9769 10.573V9.55686ZM47.0416 7.43644C46.5566 7.43644 46.2332 7.6048 46.0715 7.94155V10.4438C46.2494 10.7962 46.5768 10.9724 47.0537 10.9724C47.7045 10.9724 48.0399 10.4281 48.0601 9.33952V9.12805C48.0601 8.00033 47.7207 7.43644 47.0416 7.43644ZM52.4104 3.34851C52.969 3.34851 53.422 3.8099 53.422 4.37907C53.422 4.94824 52.969 5.40963 52.4104 5.40963C51.8518 5.40963 51.3988 4.94824 51.3988 4.37907C51.3988 3.8099 51.8518 3.34851 52.4104 3.34851Z" fill="black"/>
</g>
<defs>
<clipPath id="clip0_68_2420">
<rect width="72" height="17" fill="white"/>
</clipPath>
</defs>
</svg>
