<svg width="112" height="16" viewBox="0 0 112 16" fill="none" xmlns="http://www.w3.org/2000/svg">
<path d="M4.66502 12.15C3.85502 12.15 3.07002 12.035 2.31002 11.805C1.56002 11.575 0.965024 11.27 0.525024 10.89L1.20002 9.37498C1.63002 9.71498 2.15502 9.99498 2.77502 10.215C3.40502 10.425 4.03502 10.53 4.66502 10.53C5.44502 10.53 6.02502 10.405 6.40502 10.155C6.79502 9.90498 6.99002 9.57498 6.99002 9.16498C6.99002 8.86498 6.88002 8.61998 6.66002 8.42998C6.45002 8.22998 6.18002 8.07498 5.85002 7.96498C5.52002 7.85498 5.07002 7.72998 4.50002 7.58998C3.70002 7.39998 3.05002 7.20998 2.55002 7.01998C2.06002 6.82998 1.63502 6.53498 1.27502 6.13498C0.925024 5.72498 0.750024 5.17498 0.750024 4.48498C0.750024 3.90498 0.905024 3.37998 1.21502 2.90998C1.53502 2.42998 2.01002 2.04998 2.64002 1.76998C3.28002 1.48998 4.06002 1.34998 4.98002 1.34998C5.62002 1.34998 6.25002 1.42998 6.87002 1.58998C7.49002 1.74998 8.02503 1.97998 8.47502 2.27998L7.86002 3.79498C7.40002 3.52498 6.92002 3.31998 6.42002 3.17998C5.92002 3.03998 5.43502 2.96998 4.96502 2.96998C4.19502 2.96998 3.62002 3.09998 3.24002 3.35998C2.87002 3.61998 2.68502 3.96498 2.68502 4.39498C2.68502 4.69498 2.79002 4.93998 3.00002 5.12998C3.22002 5.31998 3.49502 5.46998 3.82502 5.57998C4.15502 5.68998 4.60502 5.81498 5.17502 5.95498C5.95502 6.13498 6.59502 6.32498 7.09502 6.52498C7.59502 6.71498 8.02002 7.00998 8.37003 7.40998C8.73003 7.80998 8.91003 8.34998 8.91003 9.02998C8.91003 9.60998 8.75002 10.135 8.43002 10.605C8.12002 11.075 7.64502 11.45 7.00502 11.73C6.36502 12.01 5.58502 12.15 4.66502 12.15Z" fill="black"/>
<path d="M10.6636 3.98998H12.5386V12H10.6636V3.98998ZM11.6086 2.66998C11.2686 2.66998 10.9836 2.56498 10.7536 2.35498C10.5236 2.13498 10.4086 1.86498 10.4086 1.54498C10.4086 1.22498 10.5236 0.959982 10.7536 0.749982C10.9836 0.529983 11.2686 0.419983 11.6086 0.419983C11.9486 0.419983 12.2336 0.524983 12.4636 0.734982C12.6936 0.934983 12.8086 1.18998 12.8086 1.49998C12.8086 1.82998 12.6936 2.10998 12.4636 2.33998C12.2436 2.55998 11.9586 2.66998 11.6086 2.66998Z" fill="black"/>
<path d="M25.1096 3.89998C26.1196 3.89998 26.9196 4.19498 27.5096 4.78498C28.0996 5.36498 28.3946 6.23998 28.3946 7.40998V12H26.5196V7.64998C26.5196 6.94998 26.3646 6.42498 26.0546 6.07498C25.7446 5.71498 25.2996 5.53498 24.7196 5.53498C24.0896 5.53498 23.5846 5.74498 23.2046 6.16498C22.8246 6.57498 22.6346 7.16498 22.6346 7.93498V12H20.7596V7.64998C20.7596 6.94998 20.6046 6.42498 20.2946 6.07498C19.9846 5.71498 19.5396 5.53498 18.9596 5.53498C18.3196 5.53498 17.8096 5.73998 17.4296 6.14998C17.0596 6.55998 16.8746 7.15498 16.8746 7.93498V12H14.9996V3.98998H16.7846V5.00998C17.0846 4.64998 17.4596 4.37498 17.9096 4.18498C18.3596 3.99498 18.8596 3.89998 19.4096 3.89998C20.0096 3.89998 20.5396 4.01498 20.9996 4.24498C21.4696 4.46498 21.8396 4.79498 22.1096 5.23498C22.4396 4.81498 22.8646 4.48998 23.3846 4.25998C23.9046 4.01998 24.4796 3.89998 25.1096 3.89998Z" fill="black"/>
<path d="M35.2306 3.89998C36.0106 3.89998 36.7056 4.06998 37.3156 4.40998C37.9356 4.74998 38.4206 5.22998 38.7706 5.84998C39.1206 6.46998 39.2956 7.18498 39.2956 7.99498C39.2956 8.80498 39.1206 9.52498 38.7706 10.155C38.4206 10.775 37.9356 11.255 37.3156 11.595C36.7056 11.935 36.0106 12.105 35.2306 12.105C34.1506 12.105 33.2956 11.745 32.6656 11.025V14.91H30.7906V3.98998H32.5756V5.03998C32.8856 4.65998 33.2656 4.37498 33.7156 4.18498C34.1756 3.99498 34.6806 3.89998 35.2306 3.89998ZM35.0206 10.5C35.7106 10.5 36.2756 10.27 36.7156 9.80998C37.1656 9.34998 37.3906 8.74498 37.3906 7.99498C37.3906 7.24498 37.1656 6.63998 36.7156 6.17998C36.2756 5.71998 35.7106 5.48998 35.0206 5.48998C34.5706 5.48998 34.1656 5.59498 33.8056 5.80498C33.4456 6.00498 33.1606 6.29498 32.9506 6.67498C32.7406 7.05498 32.6356 7.49498 32.6356 7.99498C32.6356 8.49498 32.7406 8.93498 32.9506 9.31498C33.1606 9.69498 33.4456 9.98998 33.8056 10.2C34.1656 10.4 34.5706 10.5 35.0206 10.5Z" fill="black"/>
<path d="M43.7138 12.105C42.8838 12.105 42.2338 11.88 41.7638 11.43C41.3038 10.97 41.0738 10.325 41.0738 9.49498V0.869982H42.9488V9.35998C42.9488 10.16 43.3238 10.56 44.0738 10.56C44.3238 10.56 44.5488 10.51 44.7488 10.41L44.8388 11.91C44.4888 12.04 44.1138 12.105 43.7138 12.105Z" fill="black"/>
<path d="M49.7764 10.515C50.6464 10.515 51.3714 10.225 51.9514 9.64498L52.9414 10.8C52.5914 11.23 52.1414 11.555 51.5914 11.775C51.0414 11.995 50.4214 12.105 49.7313 12.105C48.8513 12.105 48.0763 11.93 47.4063 11.58C46.7363 11.23 46.2164 10.745 45.8464 10.125C45.4864 9.49498 45.3064 8.78498 45.3064 7.99498C45.3064 7.21498 45.4814 6.51498 45.8314 5.89498C46.1914 5.26498 46.6813 4.77498 47.3013 4.42498C47.9313 4.07498 48.6414 3.89998 49.4314 3.89998C50.1814 3.89998 50.8614 4.06498 51.4714 4.39498C52.0914 4.71498 52.5814 5.17998 52.9414 5.78998C53.3014 6.38998 53.4813 7.09498 53.4813 7.90498L47.3464 9.10498C47.5364 9.56498 47.8414 9.91498 48.2614 10.155C48.6814 10.395 49.1864 10.515 49.7764 10.515ZM49.4314 5.39998C48.7414 5.39998 48.1814 5.62498 47.7514 6.07498C47.3314 6.52498 47.1213 7.12998 47.1213 7.88998V7.90498L51.6514 7.03498C51.5214 6.54498 51.2563 6.14998 50.8563 5.84998C50.4663 5.54998 49.9914 5.39998 49.4314 5.39998Z" fill="black"/>
<path d="M59.6083 1.49998H64.1983C65.3183 1.49998 66.3133 1.71998 67.1833 2.15998C68.0533 2.58998 68.7283 3.20498 69.2083 4.00498C69.6883 4.79498 69.9283 5.70998 69.9283 6.74998C69.9283 7.78998 69.6883 8.70998 69.2083 9.50998C68.7283 10.3 68.0533 10.915 67.1833 11.355C66.3133 11.785 65.3183 12 64.1983 12H59.6083V1.49998ZM64.1083 10.35C64.8783 10.35 65.5533 10.205 66.1333 9.91498C66.7233 9.61498 67.1733 9.19498 67.4833 8.65498C67.8033 8.10498 67.9633 7.46998 67.9633 6.74998C67.9633 6.02998 67.8033 5.39998 67.4833 4.85998C67.1733 4.30998 66.7233 3.88998 66.1333 3.59998C65.5533 3.29998 64.8783 3.14998 64.1083 3.14998H61.5583V10.35H64.1083Z" fill="#BD7048"/>
<path d="M75.6308 10.515C76.5008 10.515 77.2258 10.225 77.8058 9.64498L78.7958 10.8C78.4458 11.23 77.9958 11.555 77.4458 11.775C76.8958 11.995 76.2758 12.105 75.5858 12.105C74.7058 12.105 73.9308 11.93 73.2608 11.58C72.5908 11.23 72.0708 10.745 71.7008 10.125C71.3408 9.49498 71.1608 8.78498 71.1608 7.99498C71.1608 7.21498 71.3358 6.51498 71.6858 5.89498C72.0458 5.26498 72.5358 4.77498 73.1558 4.42498C73.7858 4.07498 74.4958 3.89998 75.2858 3.89998C76.0358 3.89998 76.7158 4.06498 77.3258 4.39498C77.9458 4.71498 78.4358 5.17998 78.7958 5.78998C79.1558 6.38998 79.3358 7.09498 79.3358 7.90498L73.2008 9.10498C73.3908 9.56498 73.6958 9.91498 74.1158 10.155C74.5358 10.395 75.0408 10.515 75.6308 10.515ZM75.2858 5.39998C74.5958 5.39998 74.0358 5.62498 73.6058 6.07498C73.1858 6.52498 72.9758 7.12998 72.9758 7.88998V7.90498L77.5058 7.03498C77.3758 6.54498 77.1108 6.14998 76.7108 5.84998C76.3208 5.54998 75.8458 5.39998 75.2858 5.39998Z" fill="#BD7048"/>
<path d="M83.6123 12.105C82.9623 12.105 82.3273 12.02 81.7073 11.85C81.0873 11.68 80.5923 11.465 80.2223 11.205L80.9423 9.77998C81.3023 10.02 81.7322 10.215 82.2322 10.365C82.7422 10.505 83.2422 10.575 83.7322 10.575C84.8522 10.575 85.4122 10.28 85.4122 9.68998C85.4122 9.40998 85.2672 9.21498 84.9772 9.10498C84.6972 8.99498 84.2423 8.88998 83.6123 8.78998C82.9523 8.68998 82.4122 8.57498 81.9922 8.44498C81.5822 8.31498 81.2222 8.08998 80.9122 7.76998C80.6122 7.43998 80.4622 6.98498 80.4622 6.40498C80.4622 5.64498 80.7772 5.03998 81.4072 4.58998C82.0472 4.12998 82.9073 3.89998 83.9873 3.89998C84.5373 3.89998 85.0873 3.96498 85.6373 4.09498C86.1873 4.21498 86.6373 4.37998 86.9873 4.58998L86.2673 6.01498C85.5872 5.61498 84.8223 5.41498 83.9723 5.41498C83.4223 5.41498 83.0022 5.49998 82.7122 5.66998C82.4322 5.82998 82.2923 6.04498 82.2923 6.31498C82.2923 6.61498 82.4422 6.82998 82.7422 6.95998C83.0522 7.07998 83.5273 7.19498 84.1673 7.30498C84.8073 7.40498 85.3322 7.51998 85.7422 7.64998C86.1522 7.77998 86.5023 7.99998 86.7923 8.30998C87.0923 8.61998 87.2422 9.05998 87.2422 9.62998C87.2422 10.38 86.9173 10.98 86.2673 11.43C85.6173 11.88 84.7323 12.105 83.6123 12.105Z" fill="#BD7048"/>
<path d="M88.857 3.98998H90.732V12H88.857V3.98998ZM89.802 2.66998C89.462 2.66998 89.177 2.56498 88.947 2.35498C88.717 2.13498 88.602 1.86498 88.602 1.54498C88.602 1.22498 88.717 0.959982 88.947 0.749982C89.177 0.529983 89.462 0.419983 89.802 0.419983C90.142 0.419983 90.427 0.524983 90.657 0.734982C90.887 0.934983 91.002 1.18998 91.002 1.49998C91.002 1.82998 90.887 2.10998 90.657 2.33998C90.437 2.55998 90.152 2.66998 89.802 2.66998Z" fill="#BD7048"/>
<path d="M101.143 3.98998V10.785C101.143 13.605 99.7029 15.015 96.8229 15.015C96.0529 15.015 95.3229 14.915 94.6329 14.715C93.9429 14.525 93.3729 14.245 92.9229 13.875L93.7629 12.465C94.1129 12.755 94.5529 12.985 95.0829 13.155C95.6229 13.335 96.1679 13.425 96.7179 13.425C97.5979 13.425 98.2429 13.225 98.6529 12.825C99.0629 12.425 99.2679 11.815 99.2679 10.995V10.575C98.9479 10.925 98.5579 11.19 98.0979 11.37C97.6379 11.55 97.1329 11.64 96.5829 11.64C95.8229 11.64 95.1329 11.48 94.5129 11.16C93.9029 10.83 93.4179 10.37 93.0579 9.77998C92.7079 9.18998 92.5329 8.51498 92.5329 7.75498C92.5329 6.99498 92.7079 6.32498 93.0579 5.74498C93.4179 5.15498 93.9029 4.69998 94.5129 4.37998C95.1329 4.05998 95.8229 3.89998 96.5829 3.89998C97.1629 3.89998 97.6879 3.99498 98.1579 4.18498C98.6379 4.37498 99.0379 4.66498 99.3579 5.05498V3.98998H101.143ZM96.8679 10.05C97.5779 10.05 98.1579 9.83998 98.6079 9.41998C99.0679 8.98998 99.2979 8.43498 99.2979 7.75498C99.2979 7.08498 99.0679 6.53998 98.6079 6.11998C98.1579 5.69998 97.5779 5.48998 96.8679 5.48998C96.1479 5.48998 95.5579 5.69998 95.0979 6.11998C94.6479 6.53998 94.4229 7.08498 94.4229 7.75498C94.4229 8.43498 94.6479 8.98998 95.0979 9.41998C95.5579 9.83998 96.1479 10.05 96.8679 10.05Z" fill="#BD7048"/>
<path d="M108.153 3.89998C109.163 3.89998 109.973 4.19498 110.583 4.78498C111.193 5.37498 111.498 6.24998 111.498 7.40998V12H109.623V7.64998C109.623 6.94998 109.458 6.42498 109.128 6.07498C108.798 5.71498 108.328 5.53498 107.718 5.53498C107.028 5.53498 106.483 5.74498 106.083 6.16498C105.683 6.57498 105.483 7.16998 105.483 7.94998V12H103.608V3.98998H105.393V5.02498C105.703 4.65498 106.093 4.37498 106.563 4.18498C107.033 3.99498 107.563 3.89998 108.153 3.89998Z" fill="#BD7048"/>
</svg>
